PathFileType	4	(X/Y/Z)	Walk6.trc
DataRate	CameraRate	NumFrames	NumMarkers	Units	OrigDataRate	OrigDataStartFrame	OrigNumFrames
200.000000	200.000000	5	58	mm	200.000000	485	562
Frame#	Times		RBHD		RASI		RACR1		RUA1		RFA1		RCAR		C7		LFA1		RElbow		RTH3		RTH2		LElbowM		RTB3		LTH2		RTH1		RTB1		RLFC		RMT1		RTB2		RMT5		RTB4		LACR1		LTH3		LElbow		RWRR		LTH4		LWRU		LPSI		RPSI		LTB1		T10		LWRR		LLFC		RWRU		LBHD		LTB3		LTB2		RFHD		LTH1		LTB4		LMT1		LFHD		RBack		LMMAL		RTH4		LASI		LCAL		LLMAL		CLAV		LCAR		LMT5		RLMAL		LToe		RToe		RMMAL		LUA1		RElbowM		RCAL
			X1	Y1	Z1	X2	Y2	Z2	X3	Y3	Z3	X4	Y4	Z4	X5	Y5	Z5	X6	Y6	Z6	X7	Y7	Z7	X8	Y8	Z8	X9	Y9	Z9	X10	Y10	Z10	X11	Y11	Z11	X12	Y12	Z12	X13	Y13	Z13	X14	Y14	Z14	X15	Y15	Z15	X16	Y16	Z16	X17	Y17	Z17	X18	Y18	Z18	X19	Y19	Z19	X20	Y20	Z20	X21	Y21	Z21	X22	Y22	Z22	X23	Y23	Z23	X24	Y24	Z24	X25	Y25	Z25	X26	Y26	Z26	X27	Y27	Z27	X28	Y28	Z28	X29	Y29	Z29	X30	Y30	Z30	X31	Y31	Z31	X32	Y32	Z32	X33	Y33	Z33	X34	Y34	Z34	X35	Y35	Z35	X36	Y36	Z36	X37	Y37	Z37	X38	Y38	Z38	X39	Y39	Z39	X40	Y40	Z40	X41	Y41	Z41	X42	Y42	Z42	X43	Y43	Z43	X44	Y44	Z44	X45	Y45	Z45	X46	Y46	Z46	X47	Y47	Z47	X48	Y48	Z48	X49	Y49	Z49	X50	Y50	Z50	X51	Y51	Z51	X52	Y52	Z52	X53	Y53	Z53	X54	Y54	Z54	X55	Y55	Z55	X56	Y56	Z56	X57	Y57	Z57	X58	Y58	Z58

485	2.425	958.1	1549.1	417.43	1035.9	928.19	444.75	989.17	1360.7	481.88	910.06	1176.9	549.28	843.75	916.84	593.45	832.38	728.45	598.33	932.15	1418.6	335.6	1041.7	988.73	6.2244	839.13	1061.5	563.53	1102	558.01	471.75	1125.3	673.76	462.05	892.77	1092.3	100.9	1172.4	184.33	366.82	1016.9	612.57	158.83	1026.1	727.85	502.65	1179.6	374.7	369.69	1138.3	461.66	454.87	1268.1	39.024	325.74	1169.5	277.86	441.45	1240.6	29.352	411.32	1178.8	281.88	369.83	977.2	1418.6	160.23	937.23	530.08	137.8	922.37	1101.2	23.922	876.55	776.28	566.44	947.16	618.95	126.54	1053.3	870.32	8.5143	848.33	936.46	247.91	849.29	941.25	354.16	868.6	317.73	207.84	839.61	1109.7	300.21	1115.1	903.84	53.997	898.33	421.84	151.67	803.27	789.75	583.4	947.23	1555.2	278.8	713.7	216.01	219.08	768.58	293.73	150.8	1136	1593.1	371.1	959.35	715.47	121.11	790.21	267.87	214.29	620.51	47.59	282.77	1128.8	1590.6	290.08	856.37	1321.7	414.83	608.2	179.92	280.86	1065.1	641.98	492.1	1016.9	919.36	146.18	516.6	207.23	241.3	575.22	192.16	194.68	1067.8	1339	319.59	1137	856.72	5.3414	608.98	52.769	199.17	1117.3	77.896	409.15	655.31	23.374	268.14	1317.5	35.471	342.68	1140	95.863	322.84	949.58	1230.2	51.604	826.08	1042.3	469.88	1067.6	30.657	368.77
486	2.43	964.93	1549	418.27	1042.3	929.35	445.29	996.78	1361.1	482.38	918.92	1176.9	549.83	853.61	916.29	594.2	843.42	728.12	599.12	938.87	1419.3	336.29	1046.3	988.59	7.2732	848.07	1061.4	564.2	1106	557.1	470.56	1130.9	672.98	462.79	899.33	1094.1	102.76	1173.4	183.88	365.94	1027.3	612.68	159.12	1032.3	728.07	503.06	1182.2	374.12	368.83	1142.4	461.34	454.51	1268.3	38.747	325.13	1172	277.41	440.62	1241.2	30.137	411.39	1180.7	281.42	368.99	983.85	1419.8	161.14	948.95	528.95	138.52	928.04	1102.3	25.236	887.23	776.16	566.29	957.3	618.05	127.25	1056.7	870.07	9.0436	854.64	936.84	248.71	855.39	941.77	354.63	881.45	316.4	208.31	845.79	1110.4	300.96	1119	902.73	54.539	911.53	420.46	152.36	813.83	789.41	584.19	953.96	1556	279.54	724.21	218.07	219.47	780.64	294.52	151.16	1142.4	1593.4	372.29	967.88	714.52	122.31	801.9	268.33	214.67	627.69	51.065	281.83	1135.7	1591.5	291.24	863.45	1322.3	416.07	617.69	184.76	280.9	1069.9	642.27	491.3	1023	919.74	146.62	526.69	213.62	239.85	585.28	197.3	194.53	1074.6	1339.5	319.75	1140.1	855.45	5.9155	617.09	57.396	198.95	1117.8	77.827	408.64	660.99	24.386	265.53	1318	36.146	342.63	1140.1	95.633	322.21	955.92	1231.2	52.492	834.95	1042.2	470.66	1067.6	30.668	368.65
487	2.435	971.7	1549.2	418.89	1048.8	930.59	445.99	1004.4	1361.5	482.72	927.85	1176.8	550.41	863.66	916.07	594.89	854.58	727.85	599.78	945.63	1420.1	336.99	1050.9	988.6	8.193	857.19	1061.4	565	1110.2	556.2	469.01	1136.2	672.3	463.1	905.76	1095.7	104.8	1174.2	183.35	365.25	1037.5	613.06	159.38	1038.1	728.5	503.61	1184.6	373.5	367.65	1146.4	461.09	453.93	1268.2	38.372	324.3	1174.3	276.84	439.86	1241.5	30.778	411.49	1182.4	280.76	368.04	990.38	1420.8	161.88	960.58	527.98	139.37	933.68	1103.5	26.476	897.92	775.71	566.56	967.31	617.3	128.05	1059.8	869.92	9.6891	860.84	937.11	249.46	861.39	942.4	355.43	893.96	315.55	209.32	852.18	1111.4	301.58	1122.7	901.68	55.025	924.82	419.18	153.17	824.45	789.07	585.22	960.91	1556.2	280.79	734.78	220.53	220.35	793.3	295.19	151.66	1149	1594.1	373.52	976.78	713.29	124.47	813.54	269.08	215.63	636.35	54.447	280.49	1142.4	1592.2	292.4	870.65	1322.7	417.39	627.76	189.85	280.71	1074.7	642.17	490.32	1029	920.25	147.08	537.28	219.94	239.25	595.98	202.29	194.23	1081.3	1340.1	319.88	1143.1	854.28	6.2181	625.96	62.595	198.51	1118.3	77.801	408.17	668.8	27.575	262.96	1318.7	37.177	343.1	1140	95.239	321.79	962.17	1232.1	53.446	843.96	1042	471.31	1067.6	30.668	368.54
488	2.44	978.4	1549.4	419.68	1055.1	931.78	446.5	1011.9	1361.9	482.87	936.56	1176.9	550.96	873.78	915.82	595.67	865.96	727.77	600.24	952.41	1420.7	337.85	1055.4	988.6	9.055	866.44	1061.3	565.88	1114.5	555.72	467.63	1141.5	671.99	463.05	912.21	1097.6	106.79	1175.1	182.89	364.5	1047.9	613.51	159.5	1044.1	729.05	504	1186.5	372.91	367.06	1150	460.96	453.45	1268.1	37.969	323.57	1176.6	276.34	439.1	1241.6	31.047	411.51	1183.9	280.22	367.32	996.8	1421.8	162.57	972.27	527.2	140.05	939.11	1104.7	27.626	908.8	775.53	566.96	977.31	616.75	128.86	1063	869.9	10.335	866.86	937.66	250.08	867.8	943.03	355.95	906.82	315.43	210.78	858.6	1112.4	302.24	1126.3	900.74	55.595	938.14	418.05	153.99	835.47	788.62	586.14	967.88	1556.5	282.04	745.99	223.28	221.31	806.39	295.62	152.2	1155.7	1594.5	374.62	984.81	712.41	124.73	825.64	270.35	216.84	646.28	58.294	278.92	1149.4	1593	293.39	877.98	1323.3	418.48	638.39	194.31	280.58	1079.5	641.81	489.54	1034.8	920.65	147.43	548.72	225.89	238.95	607.15	207.27	194.14	1087.8	1340.7	320.02	1145.8	853.1	6.6418	635.45	67.628	197.47	1118.7	77.84	407.97	678.32	31.236	261.27	1319.2	36.751	343.6	1140.1	94.879	321.26	968.57	1233.2	54.104	852.6	1041.9	472.21	1067.6	30.674	368.44
489	2.445	985.11	1549.6	420.46	1061.4	932.83	446.88	1019.6	1362.3	482.91	945.52	1177.1	551.34	883.99	915.68	596.61	877.36	727.69	601.12	959.05	1421.4	338.83	1059.7	988.73	9.6693	875.58	1060.9	566.77	1118.5	555.44	466.76	1146.9	672.03	462.61	918.69	1099.2	108.49	1176.1	182.51	363.83	1058	614.3	159.8	1049.8	729.91	504.22	1188.1	372.34	366.54	1153.4	460.81	453.09	1268.1	37.665	323.12	1178.8	275.9	438.43	1241.6	31.046	411.41	1185.4	279.67	366.72	1003.3	1423	163.19	983.93	526.72	140.71	944.51	1105.9	28.637	920.01	775.65	567.01	987.32	616.24	129.39	1066.1	869.41	11.215	872.86	938.25	250.62	874.35	944.1	356.36	919.48	316	212.35	864.7	1113.4	302.58	1129.9	899.87	56.155	951.5	417.32	154.55	846.49	788.18	587.07	974.95	1557.3	283.21	757.26	226.07	222.3	819.66	296.21	152.64	1162.7	1595	375.65	992.61	712.16	125.06	837.48	271.99	218.12	656.55	61.954	277.53	1156.2	1593.9	294.47	884.99	1324	419.62	649.37	197.99	280.69	1084.4	641.58	488.88	1040.5	921.12	147.83	560.14	230.79	239.16	618.7	211.84	194.1	1094.4	1341.1	319.92	1148.6	851.87	7.2667	645.28	72.11	196.17	1119	77.796	407.77	688.49	34.705	260.21	1319.4	35.094	343.68	1140.3	94.507	320.82	974.75	1234.2	54.888	861.32	1041.7	472.99	1067.6	30.694	368.34
